<?xml version="1.0" encoding="utf-8"?>
<!-- Generator: Adobe Illustrator 28.3.0, SVG Export Plug-In . SVG Version: 6.00 Build 0)  -->
<svg version="1.1" id="Calque_1" xmlns="http://www.w3.org/2000/svg" xmlns:xlink="http://www.w3.org/1999/xlink" x="0px" y="0px"
	 viewBox="0 0 800 429" style="enable-background:new 0 0 800 429;" xml:space="preserve">
<path d="M1.35,428.14h7.66v-11.5H1.35V428.14z M39.67,428.14h7.66v-11.5h-7.66V428.14z M77.99,428.14h7.66v-11.5h-7.66V428.14z
	 M116.31,428.14h7.66v-11.5h-7.66V428.14z M154.64,428.14h7.66v-11.5h-7.66V428.14z M192.96,428.14h7.66v-11.5h-7.66V428.14z
	 M231.28,428.14h7.66v-11.5h-7.66V428.14z M265.57,428.14h15.33v-19.16h-15.33V428.14z M303.89,428.14h15.33v-19.16h-15.33V428.14z
	 M342.22,428.14h15.33v-19.16h-15.33V428.14z M380.53,428.14h15.33v-19.16h-15.33V428.14z M418.86,428.14h15.32v-19.16h-15.32
	V428.14z M457.17,428.14h15.33v-19.16h-15.33V428.14z M495.5,428.14h15.32v-19.16H495.5V428.14z M532.32,428.14h17.24v-24.91h-17.24
	V428.14z M570.64,428.14h17.24v-24.91h-17.24V428.14z M608.96,428.14h17.24v-24.91h-17.24V428.14z M647.28,428.14h17.24v-24.91
	h-17.24V428.14z M685.6,428.14h17.24v-24.91H685.6V428.14z M723.92,428.14h17.24v-24.91h-17.24V428.14z M762.24,428.14h17.24v-24.91
	h-17.24V428.14z M20.51,408.98h7.66v-11.51h-7.66V408.98z M58.83,408.98h7.66v-11.51h-7.66V408.98z M97.15,408.98h7.66v-11.51h-7.66
	V408.98z M135.47,408.98h7.65v-11.51h-7.65V408.98z M173.8,408.98h7.66v-11.51h-7.66V408.98z M212.12,408.98h7.66v-11.51h-7.66
	V408.98z M250.44,408.98h7.66v-11.51h-7.66V408.98z M284.73,408.98h15.33v-19.16h-15.33V408.98z M323.06,408.98h15.32v-19.16h-15.32
	V408.98z M361.37,408.98h15.33v-19.16h-15.33V408.98z M399.69,408.98h15.33v-19.16h-15.33V408.98z M438.02,408.98h15.33v-19.16
	h-15.33V408.98z M476.33,408.98h15.33v-19.16h-15.33V408.98z M514.66,408.98h15.33v-19.16h-15.33V408.98z M551.48,408.98h17.24
	v-24.91h-17.24V408.98z M589.8,408.98h17.24v-24.91H589.8V408.98z M628.12,408.98h17.24v-24.91h-17.24V408.98z M666.44,408.98h17.24
	v-24.91h-17.24V408.98z M704.76,408.98h17.24v-24.91h-17.24V408.98z M743.08,408.98h17.24v-24.91h-17.24V408.98z M781.4,408.98
	h17.24v-24.91H781.4V408.98z M1.35,389.82h7.66v-11.51H1.35V389.82z M39.67,389.82h7.66v-11.51h-7.66V389.82z M77.99,389.82h7.66
	v-11.51h-7.66V389.82z M116.31,389.82h7.66v-11.51h-7.66V389.82z M154.64,389.82h7.66v-11.51h-7.66V389.82z M192.96,389.82h7.66
	v-11.51h-7.66V389.82z M231.28,389.82h7.66v-11.51h-7.66V389.82z M265.57,389.82h15.33v-19.17h-15.33V389.82z M303.89,389.82h15.33
	v-19.17h-15.33V389.82z M342.22,389.82h15.33v-19.17h-15.33V389.82z M380.53,389.82h15.33v-19.17h-15.33V389.82z M418.86,389.82
	h15.32v-19.17h-15.32V389.82z M457.17,389.82h15.33v-19.17h-15.33V389.82z M495.5,389.82h15.32v-19.17H495.5V389.82z M532.32,389.82
	h17.24v-24.91h-17.24V389.82z M570.64,389.82h17.24v-24.91h-17.24V389.82z M608.96,389.82h17.24v-24.91h-17.24V389.82z
	 M647.28,389.82h17.24v-24.91h-17.24V389.82z M685.6,389.82h17.24v-24.91H685.6V389.82z M723.92,389.82h17.24v-24.91h-17.24V389.82z
	 M762.24,389.82h17.24v-24.91h-17.24V389.82z M20.51,370.66h7.66v-11.5h-7.66V370.66z M58.83,370.66h7.66v-11.5h-7.66V370.66z
	 M97.15,370.66h7.66v-11.5h-7.66V370.66z M135.47,370.66h7.65v-11.5h-7.65V370.66z M173.8,370.66h7.66v-11.5h-7.66V370.66z
	 M212.12,370.66h7.66v-11.5h-7.66V370.66z M250.44,370.66h7.66v-11.5h-7.66V370.66z M284.73,370.66h15.33V351.5h-15.33V370.66z
	 M323.06,370.66h15.32V351.5h-15.32V370.66z M361.37,370.66h15.33V351.5h-15.33V370.66z M399.69,370.66h15.33V351.5h-15.33V370.66z
	 M438.02,370.66h15.33V351.5h-15.33V370.66z M476.33,370.66h15.33V351.5h-15.33V370.66z M514.66,370.66h15.33V351.5h-15.33V370.66z
	 M551.48,370.66h17.24v-24.91h-17.24V370.66z M589.8,370.66h17.24v-24.91H589.8V370.66z M628.12,370.66h17.24v-24.91h-17.24V370.66z
	 M666.44,370.66h17.24v-24.91h-17.24V370.66z M704.76,370.66h17.24v-24.91h-17.24V370.66z M743.08,370.66h17.24v-24.91h-17.24
	V370.66z M781.4,370.66h17.24v-24.91H781.4V370.66z M1.35,351.5h7.66V340H1.35V351.5z M39.67,351.5h7.66V340h-7.66V351.5z
	 M77.99,351.5h7.66V340h-7.66V351.5z M116.31,351.5h7.66V340h-7.66V351.5z M154.64,351.5h7.66V340h-7.66V351.5z M192.96,351.5h7.66
	V340h-7.66V351.5z M231.28,351.5h7.66V340h-7.66V351.5z M265.57,351.5h15.33v-19.16h-15.33V351.5z M303.89,351.5h15.33v-19.16
	h-15.33V351.5z M342.22,351.5h15.33v-19.16h-15.33V351.5z M380.53,351.5h15.33v-19.16h-15.33V351.5z M418.86,351.5h15.32v-19.16
	h-15.32V351.5z M457.17,351.5h15.33v-19.16h-15.33V351.5z M495.5,351.5h15.32v-19.16H495.5V351.5z M532.32,351.5h17.24v-24.91
	h-17.24V351.5z M570.64,351.5h17.24v-24.91h-17.24V351.5z M608.96,351.5h17.24v-24.91h-17.24V351.5z M647.28,351.5h17.24v-24.91
	h-17.24V351.5z M685.6,351.5h17.24v-24.91H685.6V351.5z M723.92,351.5h17.24v-24.91h-17.24V351.5z M762.24,351.5h17.24v-24.91
	h-17.24V351.5z M20.51,332.34h7.66v-11.5h-7.66V332.34z M58.83,332.34h7.66v-11.5h-7.66V332.34z M97.15,332.34h7.66v-11.5h-7.66
	V332.34z M135.47,332.34h7.65v-11.5h-7.65V332.34z M173.8,332.34h7.66v-11.5h-7.66V332.34z M212.12,332.34h7.66v-11.5h-7.66V332.34z
	 M250.44,332.34h7.66v-11.5h-7.66V332.34z M284.73,332.34h15.33v-19.16h-15.33V332.34z M323.06,332.34h15.32v-19.16h-15.32V332.34z
	 M361.37,332.34h15.33v-19.16h-15.33V332.34z M399.69,332.34h15.33v-19.16h-15.33V332.34z M438.02,332.34h15.33v-19.16h-15.33
	V332.34z M476.33,332.34h15.33v-19.16h-15.33V332.34z M514.66,332.34h15.33v-19.16h-15.33V332.34z M551.48,332.34h17.24v-24.91
	h-17.24V332.34z M589.8,332.34h17.24v-24.91H589.8V332.34z M628.12,332.34h17.24v-24.91h-17.24V332.34z M666.44,332.34h17.24v-24.91
	h-17.24V332.34z M704.76,332.34h17.24v-24.91h-17.24V332.34z M743.08,332.34h17.24v-24.91h-17.24V332.34z M781.4,332.34h17.24
	v-24.91H781.4V332.34z M1.35,313.18h7.66v-11.51H1.35V313.18z M39.67,313.18h7.66v-11.51h-7.66V313.18z M77.99,313.18h7.66v-11.51
	h-7.66V313.18z M116.31,313.18h7.66v-11.51h-7.66V313.18z M154.64,313.18h7.66v-11.51h-7.66V313.18z M192.96,313.18h7.66v-11.51
	h-7.66V313.18z M231.28,313.18h7.66v-11.51h-7.66V313.18z M265.57,313.18h15.33v-19.17h-15.33V313.18z M303.89,313.18h15.33v-19.17
	h-15.33V313.18z M342.22,313.18h15.33v-19.17h-15.33V313.18z M380.53,313.18h15.33v-19.17h-15.33V313.18z M418.86,313.18h15.32
	v-19.17h-15.32V313.18z M457.17,313.18h15.33v-19.17h-15.33V313.18z M495.5,313.18h15.32v-19.17H495.5V313.18z M532.32,313.18h17.24
	v-24.91h-17.24V313.18z M570.64,313.18h17.24v-24.91h-17.24V313.18z M608.96,313.18h17.24v-24.91h-17.24V313.18z M647.28,313.18
	h17.24v-24.91h-17.24V313.18z M685.6,313.18h17.24v-24.91H685.6V313.18z M723.92,313.18h17.24v-24.91h-17.24V313.18z M762.24,313.18
	h17.24v-24.91h-17.24V313.18z M20.51,294.02h7.66v-11.5h-7.66V294.02z M58.83,294.02h7.66v-11.5h-7.66V294.02z M97.15,294.02h7.66
	v-11.5h-7.66V294.02z M135.47,294.02h7.65v-11.5h-7.65V294.02z M173.8,294.02h7.66v-11.5h-7.66V294.02z M212.12,294.02h7.66v-11.5
	h-7.66V294.02z M250.44,294.02h7.66v-11.5h-7.66V294.02z M284.73,294.02h15.33v-19.16h-15.33V294.02z M323.06,294.02h15.32v-19.16
	h-15.32V294.02z M361.37,294.02h15.33v-19.16h-15.33V294.02z M399.69,294.02h15.33v-19.16h-15.33V294.02z M438.02,294.02h15.33
	v-19.16h-15.33V294.02z M476.33,294.02h15.33v-19.16h-15.33V294.02z M514.66,294.02h15.33v-19.16h-15.33V294.02z M551.48,294.02
	h17.24v-24.9h-17.24V294.02z M589.8,294.02h17.24v-24.9H589.8V294.02z M628.12,294.02h17.24v-24.9h-17.24V294.02z M666.44,294.02
	h17.24v-24.9h-17.24V294.02z M704.76,294.02h17.24v-24.9h-17.24V294.02z M743.08,294.02h17.24v-24.9h-17.24V294.02z M781.4,294.02
	h17.24v-24.9H781.4V294.02z M1.35,274.86h7.66v-11.5H1.35V274.86z M39.67,274.86h7.66v-11.5h-7.66V274.86z M77.99,274.86h7.66v-11.5
	h-7.66V274.86z M116.31,274.86h7.66v-11.5h-7.66V274.86z M154.64,274.86h7.66v-11.5h-7.66V274.86z M192.96,274.86h7.66v-11.5h-7.66
	V274.86z M231.28,274.86h7.66v-11.5h-7.66V274.86z M265.57,274.86h15.33V255.7h-15.33V274.86z M303.89,274.86h15.33V255.7h-15.33
	V274.86z M342.22,274.86h15.33V255.7h-15.33V274.86z M380.53,274.86h15.33V255.7h-15.33V274.86z M418.86,274.86h15.32V255.7h-15.32
	V274.86z M457.17,274.86h15.33V255.7h-15.33V274.86z M495.5,274.86h15.32V255.7H495.5V274.86z M532.32,274.86h17.24v-24.91h-17.24
	V274.86z M570.64,274.86h17.24v-24.91h-17.24V274.86z M608.96,274.86h17.24v-24.91h-17.24V274.86z M647.28,274.86h17.24v-24.91
	h-17.24V274.86z M685.6,274.86h17.24v-24.91H685.6V274.86z M723.92,274.86h17.24v-24.91h-17.24V274.86z M762.24,274.86h17.24v-24.91
	h-17.24V274.86z M20.51,255.7h7.66v-11.5h-7.66V255.7z M58.83,255.7h7.66v-11.5h-7.66V255.7z M97.15,255.7h7.66v-11.5h-7.66V255.7z
	 M135.47,255.7h7.65v-11.5h-7.65V255.7z M173.8,255.7h7.66v-11.5h-7.66V255.7z M212.12,255.7h7.66v-11.5h-7.66V255.7z M250.44,255.7
	h7.66v-11.5h-7.66V255.7z M284.73,255.7h15.33v-19.16h-15.33V255.7z M323.06,255.7h15.32v-19.16h-15.32V255.7z M361.37,255.7h15.33
	v-19.16h-15.33V255.7z M399.69,255.7h15.33v-19.16h-15.33V255.7z M438.02,255.7h15.33v-19.16h-15.33V255.7z M476.33,255.7h15.33
	v-19.16h-15.33V255.7z M514.66,255.7h15.33v-19.16h-15.33V255.7z M551.48,255.7h17.24v-24.91h-17.24V255.7z M589.8,255.7h17.24
	v-24.91H589.8V255.7z M628.12,255.7h17.24v-24.91h-17.24V255.7z M666.44,255.7h17.24v-24.91h-17.24V255.7z M704.76,255.7h17.24
	v-24.91h-17.24V255.7z M743.08,255.7h17.24v-24.91h-17.24V255.7z M781.4,255.7h17.24v-24.91H781.4V255.7z M1.35,236.53h7.66v-11.51
	H1.35V236.53z M39.67,236.53h7.66v-11.51h-7.66V236.53z M77.99,236.53h7.66v-11.51h-7.66V236.53z M116.31,236.53h7.66v-11.51h-7.66
	V236.53z M154.64,236.53h7.66v-11.51h-7.66V236.53z M192.96,236.53h7.66v-11.51h-7.66V236.53z M231.28,236.53h7.66v-11.51h-7.66
	V236.53z M265.57,236.53h15.33v-19.16h-15.33V236.53z M303.89,236.53h15.33v-19.16h-15.33V236.53z M342.22,236.53h15.33v-19.16
	h-15.33V236.53z M380.53,236.53h15.33v-19.16h-15.33V236.53z M418.86,236.53h15.32v-19.16h-15.32V236.53z M457.17,236.53h15.33
	v-19.16h-15.33V236.53z M495.5,236.53h15.32v-19.16H495.5V236.53z M532.32,236.53h17.24v-24.91h-17.24V236.53z M570.64,236.53h17.24
	v-24.91h-17.24V236.53z M608.96,236.53h17.24v-24.91h-17.24V236.53z M647.28,236.53h17.24v-24.91h-17.24V236.53z M685.6,236.53
	h17.24v-24.91H685.6V236.53z M723.92,236.53h17.24v-24.91h-17.24V236.53z M762.24,236.53h17.24v-24.91h-17.24V236.53z M20.51,217.37
	h7.66v-11.51h-7.66V217.37z M58.83,217.37h7.66v-11.51h-7.66V217.37z M97.15,217.37h7.66v-11.51h-7.66V217.37z M135.47,217.37h7.65
	v-11.51h-7.65V217.37z M173.8,217.37h7.66v-11.51h-7.66V217.37z M212.12,217.37h7.66v-11.51h-7.66V217.37z M250.44,217.37h7.66
	v-11.51h-7.66V217.37z M284.73,217.37h15.33V198.2h-15.33V217.37z M323.06,217.37h15.32V198.2h-15.32V217.37z M361.37,217.37h15.33
	V198.2h-15.33V217.37z M399.69,217.37h15.33V198.2h-15.33V217.37z M438.02,217.37h15.33V198.2h-15.33V217.37z M476.33,217.37h15.33
	V198.2h-15.33V217.37z M514.66,217.37h15.33V198.2h-15.33V217.37z M551.48,217.37h17.24v-24.91h-17.24V217.37z M589.8,217.37h17.24
	v-24.91H589.8V217.37z M628.12,217.37h17.24v-24.91h-17.24V217.37z M666.44,217.37h17.24v-24.91h-17.24V217.37z M704.76,217.37
	h17.24v-24.91h-17.24V217.37z M743.08,217.37h17.24v-24.91h-17.24V217.37z M781.4,217.37h17.24v-24.91H781.4V217.37z M1.35,198.21
	h7.66v-11.5H1.35V198.21z M39.67,198.21h7.66v-11.5h-7.66V198.21z M77.99,198.21h7.66v-11.5h-7.66V198.21z M116.31,198.21h7.66
	v-11.5h-7.66V198.21z M154.64,198.21h7.66v-11.5h-7.66V198.21z M192.96,198.21h7.66v-11.5h-7.66V198.21z M231.28,198.21h7.66v-11.5
	h-7.66V198.21z M265.57,198.21h15.33v-19.16h-15.33V198.21z M303.89,198.21h15.33v-19.16h-15.33V198.21z M342.22,198.21h15.33
	v-19.16h-15.33V198.21z M380.53,198.21h15.33v-19.16h-15.33V198.21z M418.86,198.21h15.32v-19.16h-15.32V198.21z M457.17,198.21
	h15.33v-19.16h-15.33V198.21z M495.5,198.21h15.32v-19.16H495.5V198.21z M532.32,198.21h17.24V173.3h-17.24V198.21z M570.64,198.21
	h17.24V173.3h-17.24V198.21z M608.96,198.21h17.24V173.3h-17.24V198.21z M647.28,198.21h17.24V173.3h-17.24V198.21z M685.6,198.21
	h17.24V173.3H685.6V198.21z M723.92,198.21h17.24V173.3h-17.24V198.21z M762.24,198.21h17.24V173.3h-17.24V198.21z M20.51,179.05
	h7.66v-11.5h-7.66V179.05z M58.83,179.05h7.66v-11.5h-7.66V179.05z M97.15,179.05h7.66v-11.5h-7.66V179.05z M135.47,179.05h7.65
	v-11.5h-7.65V179.05z M173.8,179.05h7.66v-11.5h-7.66V179.05z M212.12,179.05h7.66v-11.5h-7.66V179.05z M250.44,179.05h7.66v-11.5
	h-7.66V179.05z M284.73,179.05h15.33v-19.16h-15.33V179.05z M323.06,179.05h15.32v-19.16h-15.32V179.05z M361.37,179.05h15.33
	v-19.16h-15.33V179.05z M399.69,179.05h15.33v-19.16h-15.33V179.05z M438.02,179.05h15.33v-19.16h-15.33V179.05z M476.33,179.05
	h15.33v-19.16h-15.33V179.05z M514.66,179.05h15.33v-19.16h-15.33V179.05z M551.48,179.05h17.24v-24.91h-17.24V179.05z
	 M589.8,179.05h17.24v-24.91H589.8V179.05z M628.12,179.05h17.24v-24.91h-17.24V179.05z M666.44,179.05h17.24v-24.91h-17.24V179.05z
	 M704.76,179.05h17.24v-24.91h-17.24V179.05z M743.08,179.05h17.24v-24.91h-17.24V179.05z M781.4,179.05h17.24v-24.91H781.4V179.05z
	 M1.35,159.89h7.66v-11.5H1.35V159.89z M39.67,159.89h7.66v-11.5h-7.66V159.89z M77.99,159.89h7.66v-11.5h-7.66V159.89z
	 M116.31,159.89h7.66v-11.5h-7.66V159.89z M154.64,159.89h7.66v-11.5h-7.66V159.89z M192.96,159.89h7.66v-11.5h-7.66V159.89z
	 M231.28,159.89h7.66v-11.5h-7.66V159.89z M265.57,159.89h15.33v-19.16h-15.33V159.89z M303.89,159.89h15.33v-19.16h-15.33V159.89z
	 M342.22,159.89h15.33v-19.16h-15.33V159.89z M380.53,159.89h15.33v-19.16h-15.33V159.89z M418.86,159.89h15.32v-19.16h-15.32
	V159.89z M457.17,159.89h15.33v-19.16h-15.33V159.89z M495.5,159.89h15.32v-19.16H495.5V159.89z M532.32,159.89h17.24v-24.91h-17.24
	V159.89z M570.64,159.89h17.24v-24.91h-17.24V159.89z M608.96,159.89h17.24v-24.91h-17.24V159.89z M647.28,159.89h17.24v-24.91
	h-17.24V159.89z M685.6,159.89h17.24v-24.91H685.6V159.89z M723.92,159.89h17.24v-24.91h-17.24V159.89z M762.24,159.89h17.24v-24.91
	h-17.24V159.89z M20.51,140.73h7.66v-11.51h-7.66V140.73z M58.83,140.73h7.66v-11.51h-7.66V140.73z M97.15,140.73h7.66v-11.51h-7.66
	V140.73z M135.47,140.73h7.65v-11.51h-7.65V140.73z M173.8,140.73h7.66v-11.51h-7.66V140.73z M212.12,140.73h7.66v-11.51h-7.66
	V140.73z M250.44,140.73h7.66v-11.51h-7.66V140.73z M284.73,140.73h15.33v-19.17h-15.33V140.73z M323.06,140.73h15.32v-19.17h-15.32
	V140.73z M361.37,140.73h15.33v-19.17h-15.33V140.73z M399.69,140.73h15.33v-19.17h-15.33V140.73z M438.02,140.73h15.33v-19.17
	h-15.33V140.73z M476.33,140.73h15.33v-19.17h-15.33V140.73z M514.66,140.73h15.33v-19.17h-15.33V140.73z M551.48,140.73h17.24
	v-24.91h-17.24V140.73z M589.8,140.73h17.24v-24.91H589.8V140.73z M628.12,140.73h17.24v-24.91h-17.24V140.73z M666.44,140.73h17.24
	v-24.91h-17.24V140.73z M704.76,140.73h17.24v-24.91h-17.24V140.73z M743.08,140.73h17.24v-24.91h-17.24V140.73z M781.4,140.73
	h17.24v-24.91H781.4V140.73z M1.35,121.57h7.66v-11.5H1.35V121.57z M39.67,121.57h7.66v-11.5h-7.66V121.57z M77.99,121.57h7.66
	v-11.5h-7.66V121.57z M116.31,121.57h7.66v-11.5h-7.66V121.57z M154.64,121.57h7.66v-11.5h-7.66V121.57z M192.96,121.57h7.66v-11.5
	h-7.66V121.57z M231.28,121.57h7.66v-11.5h-7.66V121.57z M265.57,121.57h15.33v-19.16h-15.33V121.57z M303.89,121.57h15.33v-19.16
	h-15.33V121.57z M342.22,121.57h15.33v-19.16h-15.33V121.57z M380.53,121.57h15.33v-19.16h-15.33V121.57z M418.86,121.57h15.32
	v-19.16h-15.32V121.57z M457.17,121.57h15.33v-19.16h-15.33V121.57z M495.5,121.57h15.32v-19.16H495.5V121.57z M532.32,121.57h17.24
	v-24.9h-17.24V121.57z M570.64,121.57h17.24v-24.9h-17.24V121.57z M608.96,121.57h17.24v-24.9h-17.24V121.57z M647.28,121.57h17.24
	v-24.9h-17.24V121.57z M685.6,121.57h17.24v-24.9H685.6V121.57z M723.92,121.57h17.24v-24.9h-17.24V121.57z M762.24,121.57h17.24
	v-24.9h-17.24V121.57z M20.51,102.41h7.66v-11.5h-7.66V102.41z M58.83,102.41h7.66v-11.5h-7.66V102.41z M97.15,102.41h7.66v-11.5
	h-7.66V102.41z M135.47,102.41h7.65v-11.5h-7.65V102.41z M173.8,102.41h7.66v-11.5h-7.66V102.41z M212.12,102.41h7.66v-11.5h-7.66
	V102.41z M250.44,102.41h7.66v-11.5h-7.66V102.41z M284.73,102.41h15.33V83.25h-15.33V102.41z M323.06,102.41h15.32V83.25h-15.32
	V102.41z M361.37,102.41h15.33V83.25h-15.33V102.41z M399.69,102.41h15.33V83.25h-15.33V102.41z M438.02,102.41h15.33V83.25h-15.33
	V102.41z M476.33,102.41h15.33V83.25h-15.33V102.41z M514.66,102.41h15.33V83.25h-15.33V102.41z M551.48,102.41h17.24V77.5h-17.24
	V102.41z M589.8,102.41h17.24V77.5H589.8V102.41z M628.12,102.41h17.24V77.5h-17.24V102.41z M666.44,102.41h17.24V77.5h-17.24
	V102.41z M704.76,102.41h17.24V77.5h-17.24V102.41z M743.08,102.41h17.24V77.5h-17.24V102.41z M781.4,102.41h17.24V77.5H781.4
	V102.41z M1.35,83.25h7.66v-11.5H1.35V83.25z M39.67,83.25h7.66v-11.5h-7.66V83.25z M77.99,83.25h7.66v-11.5h-7.66V83.25z
	 M116.31,83.25h7.66v-11.5h-7.66V83.25z M154.64,83.25h7.66v-11.5h-7.66V83.25z M192.96,83.25h7.66v-11.5h-7.66V83.25z
	 M231.28,83.25h7.66v-11.5h-7.66V83.25z M265.57,83.25h15.33V64.09h-15.33V83.25z M303.89,83.25h15.33V64.09h-15.33V83.25z
	 M342.22,83.25h15.33V64.09h-15.33V83.25z M380.53,83.25h15.33V64.09h-15.33V83.25z M418.86,83.25h15.32V64.09h-15.32V83.25z
	 M457.17,83.25h15.33V64.09h-15.33V83.25z M495.5,83.25h15.32V64.09H495.5V83.25z M532.32,83.25h17.24V58.34h-17.24V83.25z
	 M570.64,83.25h17.24V58.34h-17.24V83.25z M608.96,83.25h17.24V58.34h-17.24V83.25z M647.28,83.25h17.24V58.34h-17.24V83.25z
	 M685.6,83.25h17.24V58.34H685.6V83.25z M723.92,83.25h17.24V58.34h-17.24V83.25z M762.24,83.25h17.24V58.34h-17.24V83.25z
	 M20.51,64.09h7.66V52.58h-7.66V64.09z M58.83,64.09h7.66V52.58h-7.66V64.09z M97.15,64.09h7.66V52.58h-7.66V64.09z M135.47,64.09
	h7.65V52.58h-7.65V64.09z M173.8,64.09h7.66V52.58h-7.66V64.09z M212.12,64.09h7.66V52.58h-7.66V64.09z M250.44,64.09h7.66V52.58
	h-7.66V64.09z M284.73,64.09h15.33V44.93h-15.33V64.09z M323.06,64.09h15.32V44.93h-15.32V64.09z M361.37,64.09h15.33V44.93h-15.33
	V64.09z M399.69,64.09h15.33V44.93h-15.33V64.09z M438.02,64.09h15.33V44.93h-15.33V64.09z M476.33,64.09h15.33V44.93h-15.33V64.09z
	 M514.66,64.09h15.33V44.93h-15.33V64.09z M551.48,64.09h17.24V39.18h-17.24V64.09z M589.8,64.09h17.24V39.18H589.8V64.09z
	 M628.12,64.09h17.24V39.18h-17.24V64.09z M666.44,64.09h17.24V39.18h-17.24V64.09z M704.76,64.09h17.24V39.18h-17.24V64.09z
	 M743.08,64.09h17.24V39.18h-17.24V64.09z M781.4,64.09h17.24V39.18H781.4V64.09z M1.35,44.93h7.66V33.42H1.35V44.93z M39.67,44.93
	h7.66V33.42h-7.66V44.93z M77.99,44.93h7.66V33.42h-7.66V44.93z M116.31,44.93h7.66V33.42h-7.66V44.93z M154.64,44.93h7.66V33.42
	h-7.66V44.93z M192.96,44.93h7.66V33.42h-7.66V44.93z M231.28,44.93h7.66V33.42h-7.66V44.93z M265.57,44.93h15.33V25.76h-15.33
	V44.93z M303.89,44.93h15.33V25.76h-15.33V44.93z M342.22,44.93h15.33V25.76h-15.33V44.93z M380.53,44.93h15.33V25.76h-15.33V44.93z
	 M418.86,44.93h15.32V25.76h-15.32V44.93z M457.17,44.93h15.33V25.76h-15.33V44.93z M495.5,44.93h15.32V25.76H495.5V44.93z
	 M532.32,44.93h17.24V20.02h-17.24V44.93z M570.64,44.93h17.24V20.02h-17.24V44.93z M608.96,44.93h17.24V20.02h-17.24V44.93z
	 M647.28,44.93h17.24V20.02h-17.24V44.93z M685.6,44.93h17.24V20.02H685.6V44.93z M723.92,44.93h17.24V20.02h-17.24V44.93z
	 M762.24,44.93h17.24V20.02h-17.24V44.93z M20.51,25.77h7.66v-11.5h-7.66V25.77z M58.83,25.77h7.66v-11.5h-7.66V25.77z M97.15,25.77
	h7.66v-11.5h-7.66V25.77z M135.47,25.77h7.65v-11.5h-7.65V25.77z M173.8,25.77h7.66v-11.5h-7.66V25.77z M212.12,25.77h7.66v-11.5
	h-7.66V25.77z M250.44,25.77h7.66v-11.5h-7.66V25.77z M284.73,25.77h15.33V6.61h-15.33V25.77z M323.06,25.77h15.32V6.61h-15.32
	V25.77z M361.37,25.77h15.33V6.61h-15.33V25.77z M399.69,25.77h15.33V6.61h-15.33V25.77z M438.02,25.77h15.33V6.61h-15.33V25.77z
	 M476.33,25.77h15.33V6.61h-15.33V25.77z M514.66,25.77h15.33V6.61h-15.33V25.77z M551.48,25.77h17.24V0.86h-17.24V25.77z
	 M589.8,25.77h17.24V0.86H589.8V25.77z M628.12,25.77h17.24V0.86h-17.24V25.77z M666.44,25.77h17.24V0.86h-17.24V25.77z
	 M704.76,25.77h17.24V0.86h-17.24V25.77z M743.08,25.77h17.24V0.86h-17.24V25.77z M781.4,25.77h17.24V0.86H781.4V25.77z"/>
</svg>
